<svg width="400" height="150" xmlns="http://www.w3.org/2000/svg">

  <!-- Letter M -->
  <path d="M50 120 L80 70 L95 90 L110 70 L140 120" fill="none" stroke="#000000" stroke-width="8"/>
  <path d="M50 120 L95 80" fill="none" stroke="#000000" stroke-width="8"/>
  <path d="M95 80 L140 120" fill="none" stroke="#000000" stroke-width="8"/>
  
  <!-- Letter S -->
  <path d="M170 90 Q200 70 230 90 Q200 110 230 130" fill="none" stroke="#000000" stroke-width="8"/>
  <path d="M230 110 Q200 90 170 110" fill="none" stroke="#000000" stroke-width="8"/>
  
  <!-- Letter A -->
  <path d="M270 120 L250 70 L285 70 L265 120 L245 95 L280 95" fill="none" stroke="#000000" stroke-width="8"/>
  <path d="M255 95 L280 95" fill="none" stroke="#000000" stroke-width="8"/>
  
  <!-- Letter N -->
  <path d="M320 120 L320 70 L350 120 L350 70" fill="none" stroke="#000000" stroke-width="8"/>
  <line x1="320" y1="70" x2="350" y2="120" stroke="#000000" stroke-width="8"/>
  
  <!-- Change font family and style -->
  <style>
    text {
      font-family: 'Arial', sans-serif;
      font-style: italic;
      font-weight: bold;
      font-size: 24px;
    }
  </style>
  
  <!-- Text -->
  <text x="20" y="140" fill="#000000">MS-AN</text>
  
</svg>




